{
  "accessors": [
    {
      "bufferView": 2,
      "componentType": 5126,
      "count": 3638,
      "max": [
        1.51260244846344,
        0.005000000353902578,
        1.0086827278137207
      ],
      "min": [
        -1.4750967025756836,
        0.0,
        -0.9973509311676025
      ],
      "type": "VEC3"
    },
    {
      "bufferView": 2,
      "byteOffset": 43656,
      "componentType": 5126,
      "count": 3638,
      "max": [
        0.9999997615814209,
        1.0,
        1.0
      ],
      "min": [
        -0.9999517798423767,
        -1.0,
        -1.0
      ],
      "type": "VEC3"
    },
    {
      "bufferView": 1,
      "componentType": 5126,
      "count": 3638,
      "max": [
        0.9885529279708862,
        0.9752683639526367
      ],
      "min": [
        0.004919290542602539,
        0.012248140759766102
      ],
      "type": "VEC2"
    },
    {
      "bufferView": 0,
      "componentType": 5125,
      "count": 5688,
      "type": "SCALAR"
    },
    {
      "bufferView": 2,
      "byteOffset": 87312,
      "componentType": 5126,
      "count": 65532,
      "max": [
        0.037607863545417786,
        0.006555298808962107,
        1.00821053981781
      ],
      "min": [
        -0.017249230295419693,
        -0.007577098440378904,
        -1.0015008449554443
      ],
      "type": "VEC3"
    },
    {
      "bufferView": 2,
      "byteOffset": 873696,
      "componentType": 5126,
      "count": 65532,
      "max": [
        1.0,
        1.0,
        1.0
      ],
      "min": [
        -1.0,
        -1.0,
        -1.0
      ],
      "type": "VEC3"
    },
    {
      "bufferView": 1,
      "byteOffset": 29104,
      "componentType": 5126,
      "count": 65532,
      "max": [
        0.10000000149011612,
        0.09999990463256836
      ],
      "min": [
        0.0,
        0.0
      ],
      "type": "VEC2"
    },
    {
      "bufferView": 0,
      "byteOffset": 22752,
      "componentType": 5125,
      "count": 379413,
      "type": "SCALAR"
    },
    {
      "bufferView": 2,
      "byteOffset": 1660080,
      "componentType": 5126,
      "count": 65532,
      "max": [
        0.037607863545417786,
        0.006436648312956095,
        1.0023201704025269
      ],
      "min": [
        -0.017197445034980774,
        -0.00820265244692564,
        -1.007827639579773
      ],
      "type": "VEC3"
    },
    {
      "bufferView": 2,
      "byteOffset": 2446464,
      "componentType": 5126,
      "count": 65532,
      "max": [
        1.0,
        1.0,
        1.0
      ],
      "min": [
        -1.0,
        -1.0,
        -1.0
      ],
      "type": "VEC3"
    },
    {
      "bufferView": 1,
      "byteOffset": 553360,
      "componentType": 5126,
      "count": 65532,
      "max": [
        0.10000000149011612,
        0.09999990463256836
      ],
      "min": [
        0.0,
        0.0
      ],
      "type": "VEC2"
    },
    {
      "bufferView": 0,
      "byteOffset": 1540404,
      "componentType": 5125,
      "count": 380988,
      "type": "SCALAR"
    },
    {
      "bufferView": 2,
      "byteOffset": 3232848,
      "componentType": 5126,
      "count": 28590,
      "max": [
        0.037573691457509995,
        0.006233931053429842,
        1.0045303106307983
      ],
      "min": [
        -0.01724650338292122,
        -0.007086483296006918,
        -1.0001212358474731
      ],
      "type": "VEC3"
    },
    {
      "bufferView": 2,
      "byteOffset": 3575928,
      "componentType": 5126,
      "count": 28590,
      "max": [
        1.0,
        1.0,
        1.0
      ],
      "min": [
        -1.0,
        -1.0,
        -1.0
      ],
      "type": "VEC3"
    },
    {
      "bufferView": 1,
      "byteOffset": 1077616,
      "componentType": 5126,
      "count": 28590,
      "max": [
        0.10000000149011612,
        0.09999990463256836
      ],
      "min": [
        0.0,
        0.0
      ],
      "type": "VEC2"
    },
    {
      "bufferView": 0,
      "byteOffset": 3064356,
      "componentType": 5125,
      "count": 159534,
      "type": "SCALAR"
    },
    {
      "bufferView": 2,
      "byteOffset": 3919008,
      "componentType": 5126,
      "count": 65532,
      "max": [
        0.01780598610639572,
        0.006886920891702175,
        1.0076342821121216
      ],
      "min": [
        -0.033939141780138016,
        -0.007892665453255177,
        -0.9970363974571228
      ],
      "type": "VEC3"
    },
    {
      "bufferView": 2,
      "byteOffset": 4705392,
      "componentType": 5126,
      "count": 65532,
      "max": [
        1.0,
        1.0,
        1.0
      ],
      "min": [
        -1.0,
        -1.0,
        -1.0
      ],
      "type": "VEC3"
    },
    {
      "bufferView": 1,
      "byteOffset": 1306336,
      "componentType": 5126,
      "count": 65532,
      "max": [
        0.10000000149011612,
        0.09999990463256836
      ],
      "min": [
        0.0,
        0.0
      ],
      "type": "VEC2"
    },
    {
      "bufferView": 0,
      "byteOffset": 3702492,
      "componentType": 5125,
      "count": 379917,
      "type": "SCALAR"
    },
    {
      "bufferView": 2,
      "byteOffset": 5491776,
      "componentType": 5126,
      "count": 65532,
      "max": [
        0.01810694858431816,
        0.007400219794362783,
        1.004406452178955
      ],
      "min": [
        -0.03352794423699379,
        -0.00772505346685648,
        -0.9975451231002808
      ],
      "type": "VEC3"
    },
    {
      "bufferView": 2,
      "byteOffset": 6278160,
      "componentType": 5126,
      "count": 65532,
      "max": [
        1.0,
        1.0,
        1.0
      ],
      "min": [
        -1.0,
        -1.0,
        -1.0
      ],
      "type": "VEC3"
    },
    {
      "bufferView": 1,
      "byteOffset": 1830592,
      "componentType": 5126,
      "count": 65532,
      "max": [
        0.10000000149011612,
        0.09999990463256836
      ],
      "min": [
        0.0,
        0.0
      ],
      "type": "VEC2"
    },
    {
      "bufferView": 0,
      "byteOffset": 5222160,
      "componentType": 5125,
      "count": 381840,
      "type": "SCALAR"
    },
    {
      "bufferView": 2,
      "byteOffset": 7064544,
      "componentType": 5126,
      "count": 28266,
      "max": [
        0.018155129626393318,
        0.006617843639105558,
        1.0049434900283813
      ],
      "min": [
        -0.033697374165058136,
        -0.008518218994140625,
        -0.988124430179596
      ],
      "type": "VEC3"
    },
    {
      "bufferView": 2,
      "byteOffset": 7403736,
      "componentType": 5126,
      "count": 28266,
      "max": [
        0.9999383687973022,
        1.0,
        1.0
      ],
      "min": [
        -1.0,
        -1.0,
        -1.0
      ],
      "type": "VEC3"
    },
    {
      "bufferView": 1,
      "byteOffset": 2354848,
      "componentType": 5126,
      "count": 28266,
      "max": [
        0.10000000149011612,
        0.09999990463256836
      ],
      "min": [
        0.0,
        0.0
      ],
      "type": "VEC2"
    },
    {
      "bufferView": 0,
      "byteOffset": 6749520,
      "componentType": 5125,
      "count": 158385,
      "type": "SCALAR"
    }
  ],
  "asset": {
    "extras": {
      "author": "mfb64 (https://sketchfab.com/mfb64)",
      "license": "CC-BY-4.0 (http://creativecommons.org/licenses/by/4.0/)",
      "source": "https://sketchfab.com/3d-models/old-persian-tudeshk-carpet-ad1d6dc2f6dd4fb5982f64b0b48e4cdf",
      "title": "Old Persian Tudeshk Carpet"
    },
    "generator": "Sketchfab-12.65.0",
    "version": "2.0"
  },
  "bufferViews": [
    {
      "buffer": 0,
      "byteLength": 7383060,
      "name": "floatBufferViews",
      "target": 34963
    },
    {
      "buffer": 0,
      "byteLength": 2580976,
      "byteOffset": 7383060,
      "byteStride": 8,
      "name": "floatBufferViews",
      "target": 34962
    },
    {
      "buffer": 0,
      "byteLength": 7742928,
      "byteOffset": 9964036,
      "byteStride": 12,
      "name": "floatBufferViews",
      "target": 34962
    }
  ],
  "buffers": [
    {
      "byteLength": 17706964,
      "uri": "bin/carpet.bin"
    }
  ],
  "images": [
    {
      "uri": "images/carpet.jpeg"
    }
  ],
  "materials": [
    {
      "doubleSided": true,
      "name": "carpet",
      "pbrMetallicRoughness": {
        "baseColorTexture": {
          "index": 0
        },
        "metallicFactor": 0.0,
        "roughnessFactor": 0.7
      }
    },
    {
      "doubleSided": true,
      "name": "VELVET-GREEN__Budapest",
      "pbrMetallicRoughness": {
        "baseColorFactor": [
          0.8,
          0.772637,
          0.605329,
          1.0
        ],
        "metallicFactor": 0.0,
        "roughnessFactor": 0.95
      }
    }
  ],
  "meshes": [
    {
      "name": "Object_0",
      "primitives": [
        {
          "attributes": {
            "NORMAL": 1,
            "POSITION": 0,
            "TEXCOORD_0": 2
          },
          "indices": 3,
          "material": 0,
          "mode": 4
        }
      ]
    },
    {
      "name": "Object_1",
      "primitives": [
        {
          "attributes": {
            "NORMAL": 5,
            "POSITION": 4,
            "TEXCOORD_0": 6
          },
          "indices": 7,
          "material": 1,
          "mode": 4
        }
      ]
    },
    {
      "name": "Object_2",
      "primitives": [
        {
          "attributes": {
            "NORMAL": 9,
            "POSITION": 8,
            "TEXCOORD_0": 10
          },
          "indices": 11,
          "material": 1,
          "mode": 4
        }
      ]
    },
    {
      "name": "Object_3",
      "primitives": [
        {
          "attributes": {
            "NORMAL": 13,
            "POSITION": 12,
            "TEXCOORD_0": 14
          },
          "indices": 15,
          "material": 1,
          "mode": 4
        }
      ]
    },
    {
      "name": "Object_4",
      "primitives": [
        {
          "attributes": {
            "NORMAL": 17,
            "POSITION": 16,
            "TEXCOORD_0": 18
          },
          "indices": 19,
          "material": 1,
          "mode": 4
        }
      ]
    },
    {
      "name": "Object_5",
      "primitives": [
        {
          "attributes": {
            "NORMAL": 21,
            "POSITION": 20,
            "TEXCOORD_0": 22
          },
          "indices": 23,
          "material": 1,
          "mode": 4
        }
      ]
    },
    {
      "name": "Object_6",
      "primitives": [
        {
          "attributes": {
            "NORMAL": 25,
            "POSITION": 24,
            "TEXCOORD_0": 26
          },
          "indices": 27,
          "material": 1,
          "mode": 4
        }
      ]
    }
  ],
  "nodes": [
    {
      "children": [
        1
      ],
      "matrix": [
        1.0,
        0.0,
        0.0,
        0.0,
        0.0,
        2.220446049250313e-16,
        -1.0,
        0.0,
        0.0,
        1.0,
        2.220446049250313e-16,
        0.0,
        0.0,
        0.0,
        0.0,
        1.0
      ],
      "name": "Sketchfab_model"
    },
    {
      "children": [
        2
      ],
      "name": "root"
    },
    {
      "children": [
        3
      ],
      "matrix": [
        1.0,
        0.0,
        0.0,
        0.0,
        0.0,
        2.220446049250313e-16,
        1.0,
        0.0,
        0.0,
        -1.0,
        2.220446049250313e-16,
        0.0,
        0.0,
        0.0,
        0.0,
        1.0
      ],
      "name": "GLTF_SceneRootNode"
    },
    {
      "children": [
        4,
        5,
        9
      ],
      "name": "Old Persian Tudeshk Carpet_2"
    },
    {
      "mesh": 0,
      "name": "Object_4"
    },
    {
      "children": [
        6,
        7,
        8
      ],
      "matrix": [
        1.0,
        0.0,
        0.0,
        0.0,
        0.0,
        1.0,
        0.0,
        0.0,
        0.0,
        0.0,
        1.0,
        0.0,
        -1.4881788492202759,
        0.0013064222875982523,
        0.013496698811650276,
        1.0
      ],
      "name": "frange1_0"
    },
    {
      "mesh": 1,
      "name": "Object_6"
    },
    {
      "mesh": 2,
      "name": "Object_7"
    },
    {
      "mesh": 3,
      "name": "Object_8"
    },
    {
      "children": [
        10,
        11,
        12
      ],
      "matrix": [
        1.0,
        0.0,
        0.0,
        0.0,
        0.0,
        1.0,
        0.0,
        0.0,
        0.0,
        0.0,
        1.0,
        0.0,
        1.5211881399154663,
        0.0005001515964977443,
        0.005637748166918755,
        1.0
      ],
      "name": "frange2_1"
    },
    {
      "mesh": 4,
      "name": "Object_10"
    },
    {
      "mesh": 5,
      "name": "Object_11"
    },
    {
      "mesh": 6,
      "name": "Object_12"
    }
  ],
  "samplers": [
    {
      "magFilter": 9729,
      "minFilter": 9987,
      "wrapS": 10497,
      "wrapT": 10497
    }
  ],
  "scene": 0,
  "scenes": [
    {
      "name": "Sketchfab_Scene",
      "nodes": [
        0
      ]
    }
  ],
  "textures": [
    {
      "sampler": 0,
      "source": 0
    }
  ]
}
