{ 
  "accessors": [
    {
      "bufferView": 2,
      "componentType": 5126,
      "count": 65534,
      "max": [241.243408203125, 757.583984375, 660.271484375],
      "min": [-497.1982421875, 26.935546875, -1.5292969942092896],
      "type": "VEC3"
    },
    {
      "bufferView": 2,
      "byteOffset": 786408,
      "componentType": 5126,
      "count": 65534,
      "max": [1.0, 1.0, 1.0],
      "min": [-1.0, -1.0, -1.0],
      "type": "VEC3"
    },
    {
      "bufferView": 1,
      "componentType": 5126,
      "count": 65534,
      "max": [715.791015625, 424.327880859375],
      "min": [-715.9287109375, -714.1142578125],
      "type": "VEC2"
    },
    {
      "bufferView": 0,
      "componentType": 5125,
      "count": 333477,
      "type": "SCALAR"
    },
    {
      "bufferView": 2,
      "byteOffset": 1572816,
      "componentType": 5126,
      "count": 62711,
      "max": [241.243408203125, 753.86328125, 1272.169921875],
      "min": [-489.39404296875, 37.427734375, 48.078125],
      "type": "VEC3"
    },
    {
      "bufferView": 2,
      "byteOffset": 2325348,
      "componentType": 5126,
      "count": 62711,
      "max": [1.0, 1.0, 1.0],
      "min": [-1.0, -1.0, -1.0],
      "type": "VEC3"
    },
    {
      "bufferView": 1,
      "byteOffset": 524272,
      "componentType": 5126,
      "count": 62711,
      "max": [654.9228515625, 579.6083984375],
      "min": [-653.9228515625, -654.1806640625],
      "type": "VEC2"
    },
    {
      "bufferView": 0,
      "byteOffset": 1333908,
      "componentType": 5125,
      "count": 303147,
      "type": "SCALAR"
    }
  ],
  "asset": {
    "extras": {
      "author": "ofismobilyalari (https://sketchfab.com/ofismobilyalari)",
      "license": "CC-BY-4.0 (http://creativecommons.org/licenses/by/4.0/)",
      "source": "https://sketchfab.com/3d-models/elsaofismobilya-koltuk-587f11de35f84214a1eaea0427a67f6a",
      "title": "Elsaofismobilya-koltuk"
    },
    "generator": "Sketchfab-12.67.0",
    "version": "2.0"
  },
  "bufferViews": [
    {
      "buffer": 0,
      "byteLength": 2546496,
      "name": "floatBufferViews",
      "target": 34963
    },
    {
      "buffer": 0,
      "byteLength": 1025960,
      "byteOffset": 2546496,
      "byteStride": 8,
      "name": "floatBufferViews",
      "target": 34962
    },
    {
      "buffer": 0,
      "byteLength": 3077880,
      "byteOffset": 3572456,
      "byteStride": 12,
      "name": "floatBufferViews",
      "target": 34962
    }
  ],
  "buffers": [
    {
      "byteLength": 6650336,
      "uri": "bin/chairGame.bin"
    }
  ],
  "materials": [
    {
      "doubleSided": true,
      "name": "wire_115115115",
      "pbrMetallicRoughness": {
        "baseColorFactor": [0.5, 0.5, 0.5, 1.0],
        "metallicFactor": 0.0,
        "roughnessFactor": 0.6
      }
    }
  ],
  "meshes": [
    {
      "name": "Object_0",
      "primitives": [
        {
          "attributes": {
            "NORMAL": 1,
            "POSITION": 0,
            "TEXCOORD_0": 2
          },
          "indices": 3,
          "material": 0,
          "mode": 4
        }
      ]
    },
    {
      "name": "Object_1",
      "primitives": [
        {
          "attributes": {
            "NORMAL": 5,
            "POSITION": 4,
            "TEXCOORD_0": 6
          },
          "indices": 7,
          "material": 0,
          "mode": 4
        }
      ]
    }
  ],
  "nodes": [
    {
      "children": [1],
      "matrix": [
        1.0, 0.0, 0.0, 0.0, 0.0, 2.220446049250313e-16, -1.0, 0.0, 0.0, 1.0,
        2.220446049250313e-16, 0.0, 0.0, 0.0, 0.0, 1.0
      ],
      "name": "chairGame"
    },
    {
      "children": [2, 3],
      "name": "elsaofismobilya-koltuk.obj.cleaner.gles"
    },
    {
      "mesh": 0,
      "name": "Object_2"
    },
    {
      "mesh": 1,
      "name": "Object_3"
    }
  ],
  "scene": 0,
  "scenes": [
    {
      "name": "chairGame",
      "nodes": [0]
    }
  ]
}
